<?xml version="1.0" standalone="no"?>
<!DOCTYPE svg PUBLIC "-//W3C//DTD SVG 20010904//EN"
 "http://www.w3.org/TR/2001/REC-SVG-20010904/DTD/svg10.dtd">
<svg version="1.0" xmlns="http://www.w3.org/2000/svg"
 width="512.000000pt" height="512.000000pt" viewBox="0 0 512.000000 512.000000"
 preserveAspectRatio="xMidYMid meet">
<metadata>
Created by potrace 1.14, written by Peter Selinger 2001-2017
</metadata>
<g transform="translate(0.000000,512.000000) scale(0.100000,-0.100000)"
fill="#000000" stroke="none">
<path d="M646 4490 c-2 -3 -3 -861 -3 -1907 l0 -1903 46 0 c25 -1 377 -1 781
-1 688 0 920 4 963 17 10 3 20 -1 23 -10 5 -14 34 -16 215 -16 l208 0 10 38
c6 21 13 52 17 69 5 25 16 35 57 54 74 34 185 109 238 160 89 86 191 236 229
337 l17 44 11 -29 c6 -15 41 -143 77 -283 37 -140 75 -284 85 -320 l17 -65
205 -3 205 -2 38 157 c21 87 40 163 41 168 3 14 84 349 181 745 14 58 26 110
27 115 2 6 6 21 9 35 19 70 149 608 153 630 3 14 7 33 10 43 5 16 -9 17 -190
17 -108 0 -196 -3 -196 -7 0 -4 -16 -79 -36 -167 -20 -89 -37 -168 -39 -176
-1 -8 -5 -28 -8 -45 -4 -16 -9 -39 -12 -50 -2 -11 -18 -83 -35 -160 -17 -77
-33 -147 -35 -156 -23 -111 -47 -213 -50 -218 -2 -4 -6 -27 -10 -51 -4 -25
-18 -92 -32 -150 -13 -58 -25 -113 -26 -122 -1 -10 -4 -18 -7 -18 -3 0 -79
297 -170 660 l-165 660 -201 0 c-179 0 -204 2 -225 18 -22 16 -142 71 -227
103 l-33 12 33 16 c18 8 35 19 36 23 2 4 8 8 14 8 18 0 130 84 186 140 102
100 176 222 221 360 63 191 50 422 -32 616 -96 226 -255 394 -470 494 -89 42
-271 93 -372 105 -33 4 -71 9 -85 12 -36 6 -1691 10 -1694 3z m1594 -454 c41
-4 82 -9 90 -11 8 -2 38 -7 65 -11 269 -34 448 -257 446 -552 -1 -98 -5 -126
-28 -197 -62 -193 -219 -310 -472 -352 -77 -12 -207 -16 -643 -19 l-548 -3 0
164 c0 91 -1 293 -1 450 0 157 1 343 1 413 l0 129 508 -2 c279 -1 541 -5 582
-9z m-204 -1598 c4 -5 39 -145 79 -318 7 -30 57 -238 86 -360 17 -69 32 -132
34 -141 2 -9 15 -65 30 -125 15 -60 29 -119 31 -131 2 -13 15 -67 28 -120 13
-54 22 -101 20 -105 -3 -4 -272 -7 -599 -8 l-595 -1 0 88 c-3 741 1 1217 9
1222 12 8 869 6 877 -1z m541 -57 c125 -40 224 -106 294 -198 l43 -55 -32
-126 c-18 -70 -39 -152 -48 -182 -8 -30 -16 -62 -18 -70 -2 -8 -18 -67 -35
-130 -17 -63 -43 -163 -58 -222 -15 -60 -30 -108 -33 -108 -4 0 -14 37 -24 83
-10 45 -22 98 -27 117 -5 19 -32 141 -60 270 -27 129 -56 262 -64 295 -8 33
-16 71 -19 85 -2 14 -16 78 -30 142 -14 65 -26 121 -26 124 0 10 67 -3 137
-25z"/>
</g>
</svg>
